<svg width="30" height="8" viewBox="0 0 30 8" fill="none" xmlns="http://www.w3.org/2000/svg">
<rect y="3.52039" width="29" height="1" rx="0.5" fill="#00A8EA"/>
<path d="M25.638 0.990532C25.8379 0.800066 26.1544 0.807748 26.3449 1.00769L28.8699 3.65836C29.0604 3.8583 29.0527 4.17479 28.8527 4.36526C28.6528 4.55572 28.3363 4.54804 28.1458 4.3481L25.6208 1.69743C25.4303 1.49749 25.438 1.181 25.638 0.990532Z" fill="#00A8EA"/>
<path d="M25.638 7.01092C25.8379 7.20138 26.1544 7.1937 26.3449 6.99376L28.8699 4.34309C29.0604 4.14315 29.0527 3.82666 28.8527 3.63619C28.6528 3.44573 28.3363 3.45341 28.1458 3.65335L25.6208 6.30402C25.4303 6.50396 25.438 6.82045 25.638 7.01092Z" fill="#00A8EA"/>
</svg>
