<svg width="189" height="53" viewBox="0 0 189 53" fill="none" xmlns="http://www.w3.org/2000/svg">
<path d="M13.7832 1.2981V8.77974H4.93269V1.2981H0V21.8313H4.93269V13.2404H13.7832V21.8313H18.7159V1.2981H13.7832Z" fill="#1C1C1C"/>
<path d="M36.7945 21.8313H42.4588L31.6966 0L20.8635 21.8313H26.4571L28.3688 17.8663H34.8828L36.7945 21.8313ZM33.9623 14.09H29.3836L31.673 8.87412L33.9623 14.09Z" fill="#1C1C1C"/>
<path d="M58.8147 4.41348C58.2246 3.39862 57.3278 2.64338 56.1477 2.10054C54.9677 1.55771 53.4808 1.2981 51.7343 1.2981H49.5629H47.722H44.6302V21.8313H49.5629V14.7509H51.7343C53.5044 14.7509 54.9677 14.4677 56.1477 13.9248C57.3278 13.382 58.2246 12.6032 58.8147 11.5883C59.4047 10.5734 59.7115 9.39337 59.7115 8.00089C59.7115 6.63201 59.4283 5.42834 58.8147 4.41348ZM54.5664 9.44058C54.3304 9.8418 53.9528 10.125 53.4572 10.3138C52.9615 10.5026 52.3951 10.597 51.7343 10.597H49.5629V5.38114H51.7343C52.3951 5.38114 52.9851 5.47554 53.4572 5.68795C53.9528 5.90037 54.3068 6.18358 54.5664 6.58481C54.8024 6.98603 54.9441 7.45806 54.9441 8.02449C54.9441 8.59093 54.8024 9.06295 54.5664 9.44058Z" fill="#1C1C1C"/>
<path d="M105.168 17.5595L96.813 0.259644L88.4581 17.5359H85.1067V25.0411H90.063V21.8313H103.587V25.0647H108.543V17.5595H105.168ZM96.813 9.20457L99.8576 17.5359H93.792L96.813 9.20457Z" fill="#1C1C1C"/>
<path d="M125.795 1.2981V8.77974H116.945V1.2981H112.012V21.8313H116.945V13.2404H125.795V21.8313H130.728V1.2981H125.795Z" fill="#1C1C1C"/>
<path d="M148.807 21.8313H154.471L143.709 0L132.876 21.8313H138.469L140.381 17.8663H146.895L148.807 21.8313ZM145.975 14.09H141.396L143.685 8.87412L145.975 14.09Z" fill="#1C1C1C"/>
<path d="M168.16 1.2981H166.319H163.817C162.047 1.2981 160.56 1.58131 159.357 2.14775C158.153 2.71418 157.28 3.49303 156.69 4.50789C156.123 5.52275 155.816 6.67921 155.816 8.02449C155.816 9.34617 156.1 10.5026 156.69 11.5175C157.256 12.5324 158.153 13.3348 159.357 13.9012C159.522 13.972 159.687 14.0428 159.852 14.1137L154.589 21.8313H160.371L164.761 14.7509H166.295V21.8313H171.275V1.2981H168.16ZM164.171 10.8567C163.51 10.8567 162.944 10.7623 162.448 10.5498C161.976 10.3374 161.599 10.0306 161.339 9.62939C161.079 9.22816 160.961 8.73253 160.961 8.1661C160.961 7.59967 161.079 7.12764 161.339 6.72642C161.599 6.32519 161.953 6.04198 162.448 5.80596C162.92 5.59355 163.51 5.47554 164.171 5.47554H166.319V10.8567H164.171Z" fill="#1C1C1C"/>
<path d="M91.8802 35.7561V51.8286H86.8295V31.2954H104.767V51.8286H99.7158V35.7561H91.8802Z" fill="#1C1C1C"/>
<path d="M107.268 31.2954H123.506V35.7561H117.865V51.8286H112.886V35.7561H107.292V31.2954H107.268Z" fill="#1C1C1C"/>
<path d="M130.539 42.6477V31.2954H125.772V52.8435L139.933 40.5V51.8286H144.747V30.257L130.539 42.6477Z" fill="#1C1C1C"/>
<path d="M167.428 51.8286L158.649 40.9012L166.98 31.2954H161.15L154.188 39.3435V31.2954H149.043V51.8286H154.188V42.8837L161.41 51.8286H167.428Z" fill="#1C1C1C"/>
<path d="M183.336 51.8286H189L178.238 29.9973L167.405 51.8286H172.998L174.91 47.8636H181.424L183.336 51.8286ZM180.504 44.0873H175.925L178.214 38.8714L180.504 44.0873Z" fill="#1C1C1C"/>
<path d="M80.3627 33.7735C79.3714 32.8059 78.215 32.0742 76.8697 31.5786C76.4685 31.437 76.0672 31.2954 75.6424 31.201C75.5952 31.1538 75.5716 31.1302 75.5244 31.1066C75.0052 30.5637 74.604 29.9029 74.3443 29.1476C74.0611 28.3924 73.9431 27.5663 73.9431 26.6931C73.9431 25.7726 74.0847 24.9466 74.3443 24.1913C74.6276 23.4597 75.0052 22.7989 75.5244 22.256C75.548 22.2324 75.548 22.2324 75.5716 22.2088C76.138 22.0908 76.6809 21.902 77.2001 21.7132C78.5454 21.1704 79.7019 20.4151 80.7167 19.4475C81.708 18.4798 82.4868 17.3233 83.0296 15.9781C83.5725 14.6564 83.8557 13.1931 83.8557 11.6118C83.8557 10.0305 83.5725 8.56722 83.0061 7.24555C82.4396 5.92387 81.6608 4.791 80.6695 3.82334C79.6782 2.85569 78.5218 2.12404 77.1765 1.62841C75.8312 1.10918 74.3679 0.873169 72.7866 0.873169C71.2054 0.873169 69.7421 1.13278 68.3732 1.62841C67.0279 2.14764 65.8478 2.87929 64.8566 3.82334C63.8653 4.791 63.0865 5.92387 62.5436 7.24555C62.0008 8.56722 61.7176 10.0069 61.7176 11.6118C61.7176 13.1931 61.9772 14.6564 62.52 15.9781C63.0393 17.2997 63.8181 18.4562 64.8094 19.4475C65.8006 20.4151 66.9807 21.194 68.326 21.7132C68.7508 21.8784 69.1756 22.02 69.6241 22.138C69.6005 22.2088 69.5533 22.2796 69.5297 22.3504C68.9868 23.6721 68.7036 25.1118 68.7036 26.7167C68.7036 28.298 68.9632 29.7613 69.5061 31.083C69.5297 31.1302 69.5297 31.1538 69.5533 31.1774C69.0576 31.2954 68.562 31.437 68.09 31.6258C66.7447 32.145 65.5646 32.8767 64.5734 33.8207C63.5821 34.7884 62.8033 35.9212 62.2604 37.2429C61.7176 38.5646 61.4344 40.0043 61.4344 41.6092C61.4344 43.2141 61.694 44.6538 62.2368 45.9754C62.52 46.7071 62.8977 47.3679 63.3225 48.0051H11.9423C11.305 48.0051 10.6914 47.7455 10.2902 47.2499L4.2246 40.4763C3.39855 39.5559 1.98246 39.4851 1.08561 40.2875C0.188757 41.0899 0.0943515 42.5296 0.896799 43.4265L7.694 51.0261L7.7648 51.1205C8.59085 51.9702 9.74732 52.4422 10.9274 52.4422H69.8837C70.0961 52.4422 70.3085 52.4186 70.4973 52.3478C71.1346 52.4422 71.7954 52.4894 72.4798 52.4894C74.0847 52.4894 75.548 52.2298 76.8933 51.687C78.2386 51.1441 79.395 50.3889 80.4099 49.4212C81.4012 48.4536 82.18 47.2971 82.7228 45.9518C83.2657 44.6302 83.5489 43.1669 83.5489 41.5856C83.5489 40.0043 83.2657 38.541 82.6992 37.2193C82.1328 35.874 81.354 34.7412 80.3627 33.7735ZM68.562 16.0017C68.0428 15.4588 67.6415 14.798 67.3819 14.0427C67.0987 13.2875 66.9807 12.4615 66.9807 11.5882C66.9807 10.6677 67.1223 9.8417 67.3819 9.08645C67.6651 8.35481 68.0428 7.69397 68.562 7.15114C69.0812 6.60831 69.6949 6.18348 70.4029 5.85306C71.1109 5.54624 71.9134 5.38103 72.7866 5.38103C73.6599 5.38103 74.4623 5.54624 75.1704 5.85306C75.8784 6.15988 76.4921 6.60831 77.0113 7.15114C77.5305 7.69397 77.9081 8.35481 78.1442 9.11005C78.4038 9.8653 78.5218 10.6913 78.5218 11.5882C78.5218 12.4851 78.3802 13.3111 78.1206 14.0663C77.8373 14.8216 77.4597 15.4588 76.9405 16.0253C76.4213 16.5681 75.8312 16.9929 75.1232 17.3233C74.4151 17.6302 73.6363 17.7954 72.7866 17.7954C71.9134 17.7954 71.1109 17.6302 70.4029 17.3233C69.6949 16.9693 69.0812 16.5445 68.562 16.0017ZM77.8373 44.0401C77.5541 44.7954 77.1765 45.4326 76.6573 45.999C76.138 46.5419 75.548 46.9667 74.84 47.2971C74.1319 47.6039 73.3531 47.7691 72.5034 47.7691C71.6302 47.7691 70.8277 47.6039 70.1197 47.2971C69.4116 46.9903 68.798 46.5655 68.2788 45.999C67.7595 45.4562 67.3583 44.7954 67.0987 44.0401C66.8155 43.2849 66.6975 42.4588 66.6975 41.5856C66.6975 40.6651 66.8391 39.8391 67.0987 39.0838C67.3819 38.3522 67.7595 37.6913 68.2788 37.1485C68.798 36.6057 69.4116 36.1809 70.1197 35.8504C70.8277 35.5436 71.6302 35.3784 72.5034 35.3784C73.3767 35.3784 74.1791 35.5436 74.8872 35.8504C75.5952 36.1572 76.2088 36.6057 76.7281 37.1485C77.2473 37.6913 77.6249 38.3522 77.8609 39.1074C78.1206 39.8627 78.2386 40.6887 78.2386 41.5856C78.2386 42.4588 78.097 43.2849 77.8373 44.0401Z" fill="#00A8EA"/>
</svg>
